<svg xmlns="http://www.w3.org/2000/svg" width="1600" height="900" viewBox="0 0 1600 900">
  <rect width="1600" height="900" fill="#f8fafc"/><g stroke="#dbe4ea" stroke-width="1"><path d="M0 780 800 350 1600 780M0 850 800 420 1600 850"/><path d="M250 900 800 350M525 900 800 350M800 900V350M1075 900 800 350M1350 900 800 350"/></g>
  <g fill="#e2e8f0" stroke="#64748b" stroke-width="3"><path d="m390 625 190-95 150 75-190 95z"/><path d="m760 590 220-110 185 92-220 110z"/><path d="m625 740 210-105 170 85-210 105z"/></g>
  <g fill="#ecfeff" stroke="#0e7490" stroke-width="4"><path d="m390 625 190-95v-160l-190 95z"/><path d="m760 590 220-110V285L760 395z"/><path d="m625 740 210-105V505L625 610z"/></g>
  <path d="m540 700 220-110m185 92-110-47" fill="none" stroke="#f59e0b" stroke-width="12"/>
  <text x="90" y="105" fill="#0f172a" font-family="Arial, sans-serif" font-size="34" font-weight="700">SCHEME 01 / BASELINE</text><text x="92" y="148" fill="#64748b" font-family="Arial, sans-serif" font-size="18">URBAN BASE SURFACE NETWORK STUDY</text><text x="90" y="820" fill="#0e7490" font-family="Arial, sans-serif" font-size="22" font-weight="700">方案一 · 基准布局</text>
</svg>
