<svg xmlns="http://www.w3.org/2000/svg" width="1600" height="900" viewBox="0 0 1600 900">
  <rect width="1600" height="900" fill="#f8fafc"/><g stroke="#dbe4ea" stroke-width="1"><path d="M0 780 800 350 1600 780M0 850 800 420 1600 850"/><path d="M250 900 800 350M525 900 800 350M800 900V350M1075 900 800 350M1350 900 800 350"/></g>
  <g fill="#ecfeff" stroke="#0e7490" stroke-width="4"><path d="m315 665 190-95V420l-190 95z"/><path d="m565 710 230-115V300L565 415z"/><path d="m850 590 210-105V265L850 370z"/><path d="m1090 700 165-82V470l-165 82z"/></g>
  <g fill="none" stroke="#f59e0b"><path d="m410 617 270-135 275 70 217 58" stroke-width="12"/><path d="m680 482 285-142" stroke-width="7"/><circle cx="680" cy="482" r="18" fill="#f59e0b" stroke="none"/><circle cx="955" cy="552" r="18" fill="#f59e0b" stroke="none"/></g>
  <text x="90" y="105" fill="#0f172a" font-family="Arial, sans-serif" font-size="34" font-weight="700">SCHEME 03 / MULTI-LEVEL</text><text x="92" y="148" fill="#64748b" font-family="Arial, sans-serif" font-size="18">VERTICAL PUBLIC REALM DISTRIBUTION</text><text x="90" y="820" fill="#0e7490" font-family="Arial, sans-serif" font-size="22" font-weight="700">方案三 · 立体复合</text>
</svg>
